<svg xmlns="http://www.w3.org/2000/svg" style="display: none;"><symbol id="facebook-logo" viewBox="0 0 97.75 97.75"><title>facebook-logo</title><path d="M48.875,0C21.882,0,0,21.882,0,48.875S21.882,97.75,48.875,97.75S97.75,75.868,97.75,48.875S75.868,0,48.875,0z M67.521,24.89l-6.76,0.003c-5.301,0-6.326,2.519-6.326,6.215v8.15h12.641L67.07,52.023H54.436v32.758H41.251V52.023H30.229V39.258 h11.022v-9.414c0-10.925,6.675-16.875,16.42-16.875l9.851,0.015V24.89L67.521,24.89z"/></symbol><symbol id="github-logo" viewBox="0 0 35.318 35.318"><title>github-logo</title><path d="M23.71,34.689c-0.172,0.062-0.345,0.137-0.522,0.168c-0.678,0.121-1.112-0.229-1.116-0.922 c-0.009-1.287-0.009-2.572,0.012-3.859c0.022-1.48-0.012-2.941-1.139-4.162c0.67-0.12,1.266-0.204,1.849-0.338 c3.862-0.887,5.868-3.323,6.124-7.366c0.131-2.058-0.236-3.946-1.604-5.567c-0.099-0.114-0.104-0.373-0.057-0.539 c0.364-1.34,0.258-2.649-0.166-3.959c-0.105-0.327-0.279-0.428-0.602-0.407c-1.134,0.063-2.173,0.461-3.089,1.073 c-0.883,0.593-1.705,0.722-2.754,0.482c-2.31-0.521-4.635-0.369-6.94,0.165c-0.261,0.062-0.612-0.021-0.851-0.161 c-1.082-0.634-2.164-1.25-3.412-1.496c-0.965-0.188-1.049-0.14-1.305,0.793C7.816,9.77,7.784,10.947,8.113,12.13 c0.047,0.172-0.002,0.448-0.117,0.575c-2.557,2.853-1.631,8.244,0.092,10.309c1.34,1.604,3.12,2.326,5.096,2.701 c0.345,0.064,0.688,0.113,1.033,0.173c-0.296,0.77-0.562,1.497-0.863,2.212c-0.059,0.138-0.246,0.254-0.399,0.312 c-1.938,0.752-3.604,0.199-4.713-1.56c-0.593-0.938-1.354-1.639-2.488-1.842c-0.036-0.007-0.073-0.026-0.106-0.021 c-0.305,0.08-0.607,0.164-0.911,0.246c0.171,0.238,0.292,0.558,0.521,0.701c0.961,0.608,1.586,1.475,1.999,2.498 c0.649,1.604,1.909,2.319,3.546,2.459c0.799,0.065,1.606,0.01,2.481,0.01c0,0.996,0.036,2.133-0.015,3.265 c-0.026,0.61-0.639,0.854-1.373,0.604c-1.947-0.666-3.752-1.621-5.311-2.963C0.956,26.96-1.214,20.83,0.657,13.655 C2.522,6.503,7.383,2.116,14.651,0.739C24.708-1.163,34.235,6.161,35.233,16.37C36.021,24.418,31.284,31.949,23.71,34.689z M14.229,25.85c-0.006,0.014-0.01,0.024-0.016,0.038c0.018,0.003,0.036,0.006,0.055,0.009 C14.282,25.898,14.294,25.923,14.229,25.85z M9.679,29.031c0.157,0.097,0.307,0.22,0.477,0.273c0.062,0.02,0.177-0.121,0.38-0.271 c-0.282-0.107-0.448-0.201-0.623-0.225C9.845,28.8,9.757,28.953,9.679,29.031z M11.112,29.277c0.023,0.105,0.232,0.236,0.355,0.234 c0.119-0.002,0.235-0.16,0.354-0.25c-0.108-0.099-0.216-0.195-0.548-0.494C11.201,28.975,11.082,29.143,11.112,29.277z M12.87,28.854c-0.148,0.035-0.273,0.172-0.408,0.266c0.079,0.1,0.158,0.193,0.285,0.35c0.175-0.16,0.294-0.271,0.414-0.379 C13.061,29.004,12.944,28.836,12.87,28.854z M8.512,28.261c0.082,0.155,0.209,0.289,0.381,0.508 c0.115-0.188,0.24-0.332,0.218-0.361c-0.109-0.143-0.257-0.26-0.403-0.367C8.698,28.033,8.495,28.227,8.512,28.261z"/></symbol><symbol id="google-plus" viewBox="0 0 112.196 112.196"><title>google-plus</title><g> <circle id="XMLID_30_" style="fill:#DC4E41;" cx="56.098" cy="56.097" r="56.098"/> </g><g> <path style="fill:#DC4E41;" d="M19.531,58.608c-0.199,9.652,6.449,18.863,15.594,21.867c8.614,2.894,19.205,0.729,24.937-6.648 c4.185-5.169,5.136-12.06,4.683-18.498c-7.377-0.066-14.754-0.044-22.12-0.033c-0.012,2.628,0,5.246,0.011,7.874 c4.417,0.122,8.835,0.066,13.252,0.155c-1.115,3.821-3.655,7.377-7.51,8.757c-7.443,3.28-16.94-1.005-19.282-8.813 c-2.827-7.477,1.801-16.5,9.442-18.675c4.738-1.667,9.619,0.21,13.673,2.673c2.054-1.922,3.976-3.976,5.864-6.052 c-4.606-3.854-10.525-6.217-16.61-5.698C29.526,35.659,19.078,46.681,19.531,58.608z"/> <path style="fill:#DC4E41;" d="M79.102,48.668c-0.022,2.198-0.045,4.407-0.056,6.604c-2.209,0.022-4.406,0.033-6.604,0.044 c0,2.198,0,4.384,0,6.582c2.198,0.011,4.407,0.022,6.604,0.045c0.022,2.198,0.022,4.395,0.044,6.604c2.187,0,4.385-0.011,6.582,0 c0.012-2.209,0.022-4.406,0.045-6.615c2.197-0.011,4.406-0.022,6.604-0.033c0-2.198,0-4.384,0-6.582 c-2.197-0.011-4.406-0.022-6.604-0.044c-0.012-2.198-0.033-4.407-0.045-6.604C83.475,48.668,81.288,48.668,79.102,48.668z"/> <g> <path style="fill:#FFFFFF;" d="M19.531,58.608c-0.453-11.927,9.994-22.949,21.933-23.092c6.085-0.519,12.005,1.844,16.61,5.698 c-1.889,2.077-3.811,4.13-5.864,6.052c-4.054-2.463-8.935-4.34-13.673-2.673c-7.642,2.176-12.27,11.199-9.442,18.675 c2.342,7.808,11.839,12.093,19.282,8.813c3.854-1.38,6.395-4.936,7.51-8.757c-4.417-0.088-8.835-0.033-13.252-0.155 c-0.011-2.628-0.022-5.246-0.011-7.874c7.366-0.011,14.743-0.033,22.12,0.033c0.453,6.439-0.497,13.33-4.683,18.498 c-5.732,7.377-16.322,9.542-24.937,6.648C25.981,77.471,19.332,68.26,19.531,58.608z"/> <path style="fill:#FFFFFF;" d="M79.102,48.668c2.187,0,4.373,0,6.57,0c0.012,2.198,0.033,4.407,0.045,6.604 c2.197,0.022,4.406,0.033,6.604,0.044c0,2.198,0,4.384,0,6.582c-2.197,0.011-4.406,0.022-6.604,0.033 c-0.022,2.209-0.033,4.406-0.045,6.615c-2.197-0.011-4.396,0-6.582,0c-0.021-2.209-0.021-4.406-0.044-6.604 c-2.197-0.023-4.406-0.033-6.604-0.045c0-2.198,0-4.384,0-6.582c2.198-0.011,4.396-0.022,6.604-0.044 C79.057,53.075,79.079,50.866,79.102,48.668z"/> </g> </g></symbol><symbol id="instagram" viewBox="0 0 89.758 89.758"><title>instagram</title><path style="fill:#6A453B;" d="M58.255,23.88H31.503c-4.27,0-7.744,3.474-7.744,7.744v26.752c0,4.27,3.474,7.745,7.744,7.745 h26.752c4.27,0,7.745-3.474,7.745-7.745V31.624C66,27.354,62.526,23.88,58.255,23.88z M44.879,58.906 c-7.667,0-13.905-6.238-13.905-13.906c0-7.667,6.238-13.905,13.905-13.905c7.668,0,13.906,6.238,13.906,13.905 C58.785,52.667,52.546,58.906,44.879,58.906z M59.232,33.97c-1.815,0-3.291-1.476-3.291-3.29c0-1.814,1.476-3.29,3.291-3.29 c1.814,0,3.29,1.476,3.29,3.29C62.522,32.494,61.046,33.97,59.232,33.97z"/><path style="fill:#6A453B;" d="M44.879,36.971c-4.426,0-8.03,3.602-8.03,8.028c0,4.428,3.604,8.031,8.03,8.031 c4.428,0,8.029-3.603,8.029-8.031C52.908,40.574,49.306,36.971,44.879,36.971z"/><path style="fill:#6A453B;" d="M44.879,0C20.094,0,0,20.094,0,44.879c0,24.785,20.094,44.879,44.879,44.879 c24.785,0,44.879-20.094,44.879-44.879C89.758,20.094,69.664,0,44.879,0z M71.875,58.376c0,7.511-6.109,13.62-13.62,13.62H31.503 c-7.51,0-13.62-6.109-13.62-13.62V31.624c0-7.51,6.11-13.62,13.62-13.62h26.752c7.511,0,13.62,6.11,13.62,13.62V58.376z"/></symbol><symbol id="cogwheel" viewBox="0 0 512 512"><title>cogwheel</title><path style="fill:#93C7EF;" d="M263.969,279.373l-26.382,15.232c-17.268-20.838-41.723-35.511-69.526-40.196V224h-38.4v30.409 c-27.803,4.685-52.257,19.357-69.526,40.195l-26.382-15.231l-19.2,33.254l26.337,15.205c-4.669,12.513-7.229,26.045-7.229,40.166 c0,14.121,2.56,27.653,7.229,40.166l-26.337,15.208l19.2,33.254l26.382-15.231c17.268,20.838,41.723,35.51,69.526,40.195V512h38.4 v-30.409c27.803-4.685,52.257-19.357,69.526-40.196l26.382,15.232l19.2-33.254l-26.337-15.206 c4.669-12.512,7.229-26.045,7.229-40.166s-2.56-27.653-7.229-40.166l26.337-15.206L263.969,279.373z M148.861,416.092 c-26.518,0-48.092-21.574-48.092-48.092s21.574-48.092,48.092-48.092s48.092,21.574,48.092,48.092S175.379,416.092,148.861,416.092z "/><path style="fill:#78B9EB;" d="M264.061,368c0-14.121-2.56-27.653-7.229-40.166l26.337-15.206l-19.2-33.254l-26.382,15.232 c-17.268-20.838-41.723-35.511-69.526-40.196V224h-18.468v95.926c26.18,0.394,47.36,21.801,47.36,48.074s-21.18,47.68-47.36,48.074 V512h18.468v-30.409c27.803-4.685,52.257-19.357,69.526-40.196l26.382,15.232l19.2-33.254l-26.337-15.206 C261.501,395.653,264.061,382.121,264.061,368z"/><path style="fill:#FFC170;" d="M171.169,184.627l26.941-15.555c10.962,11.606,25.213,20.06,41.253,23.866V224h38.4v-31.062 c16.041-3.805,30.291-12.26,41.253-23.866l26.941,15.555l19.2-33.254l-26.894-15.528c2.266-7.558,3.5-15.558,3.5-23.845 s-1.234-16.287-3.5-23.845l26.894-15.528l-19.2-33.254l-26.941,15.555c-10.962-11.606-25.213-20.06-41.253-23.866V0h-38.4v31.062 c-16.041,3.805-30.291,12.26-41.253,23.866l-26.941-15.555l-19.2,33.254l26.894,15.528c-2.266,7.558-3.5,15.558-3.5,23.845 s1.234,16.287,3.5,23.845l-26.894,15.528L171.169,184.627z M277.764,112c0,10.604-8.596,19.2-19.2,19.2s-19.2-8.596-19.2-19.2 s8.596-19.2,19.2-19.2S277.764,101.396,277.764,112z"/><path style="fill:#FF9811;" d="M341.764,112c0-8.287-1.234-16.287-3.5-23.845l26.894-15.528l-19.2-33.254l-26.941,15.555 c-10.962-11.606-25.213-20.06-41.253-23.866V0h-18.092v92.856c10.085,0.577,18.092,8.914,18.092,19.144s-8.006,18.566-18.092,19.144 V224h18.092v-31.062c16.041-3.805,30.291-12.26,41.253-23.866l26.941,15.555l19.2-33.254l-26.894-15.528 C340.53,128.287,341.764,120.287,341.764,112z"/><path style="fill:#0052B4;" d="M471.908,288c0-5.359-0.649-10.566-1.841-15.566l27.378-15.807l-19.2-33.254l-27.413,15.826 c-7.543-7.133-16.727-12.543-26.926-15.589V192h-38.4v31.61c-10.199,3.046-19.383,8.454-26.926,15.589l-27.412-15.826l-19.2,33.254 l27.378,15.807c-1.19,5-1.839,10.207-1.839,15.566c0,5.359,0.649,10.566,1.839,15.566l-27.378,15.807l19.2,33.254l27.412-15.826 c7.543,7.133,16.727,12.543,26.926,15.589V384h38.4v-31.61c10.199-3.046,19.383-8.454,26.926-15.589l27.413,15.826l19.2-33.254 l-27.378-15.807C471.259,298.566,471.908,293.359,471.908,288z M423.908,288c0,10.604-8.596,19.2-19.2,19.2s-19.2-8.596-19.2-19.2 s8.596-19.2,19.2-19.2S423.908,277.396,423.908,288z"/><path style="fill:#003778;" d="M471.908,288c0-5.359-0.649-10.566-1.841-15.566l27.378-15.807l-19.2-33.254l-27.413,15.826 c-7.543-7.133-16.727-12.543-26.926-15.589V192h-19.593v76.82c0.132-0.003,0.261-0.02,0.394-0.02c10.604,0,19.2,8.596,19.2,19.2 s-8.596,19.2-19.2,19.2c-0.133,0-0.262-0.018-0.394-0.021V384h19.594v-31.61c10.199-3.046,19.383-8.454,26.926-15.589l27.412,15.826 l19.2-33.254l-27.378-15.807C471.259,298.566,471.908,293.359,471.908,288z"/></symbol><symbol id="fashion-1" viewBox="0 0 513.067 513.067"><title>fashion-1</title><path style="fill:#F2F2F2;" d="M330.133,345.6h-147.2l18.133-328.533c12.8-4.267,5.333-1.067,18.133-3.2L218.133,0H296 l-2.133,13.867c12.8,2.133,5.333,0,18.133,3.2L330.133,345.6z"/><g> <polygon style="fill:#FF7058;" points="267.2,91.733 280,70.4 256.533,50.133 232,70.4 245.867,91.733 "/> <polygon style="fill:#FF7058;" points="267.2,91.733 275.733,187.733 256.533,211.2 237.333,187.733 245.867,91.733 "/> </g><g> <polygon style="fill:#E8EAEA;" points="256.533,50.133 218.133,0 201.067,17.067 227.733,76.8 "/> <polygon style="fill:#E8EAEA;" points="256.533,50.133 294.933,0 312,17.067 285.333,76.8 "/> </g><rect x="289.6" y="170.667" style="fill:#334A5E;" width="57.6" height="8.533"/><polygon style="fill:#FF7058;" points="340.8,174.933 318.4,148.267 297.067,174.933 "/><g> <rect x="244.8" y="290.133" style="fill:#FFD15C;" width="24.533" height="211.2"/> <path style="fill:#FFD15C;" d="M190.4,512c13.867-20.267,48-39.467,65.067-46.933c18.133,7.467,52.267,26.667,65.067,46.933h27.733 c-14.933-41.6-80-69.333-88.533-72.533l-3.2-1.067l-4.267,2.133c-7.467,3.2-73.6,30.933-88.533,72.533H190.4V512z"/> </g><path style="fill:#40596B;" d="M436.8,186.667L424,96c-5.333-35.2-32-62.933-66.133-69.333L312,17.067l-55.467,156.8v140.8 c0,25.6,20.267,45.867,45.867,45.867h69.333V137.6l8.533,49.067H436.8z"/><g> <polygon style="fill:#334A5E;" points="325.867,103.467 313.067,80 334.4,58.667 312,17.067 256.533,173.867 "/> <path style="fill:#334A5E;" d="M424,96c-3.2-22.4-16-41.6-33.067-55.467c-12.8,30.933-19.2,64-19.2,97.067l25.6,142.933 l51.2-10.667L424,96z"/> </g><path style="fill:#40596B;" d="M76.267,186.667L89.067,96c5.333-35.2,32-62.933,66.133-69.333l45.867-9.6l55.467,156.8v140.8 c0,25.6-20.267,45.867-45.867,45.867h-69.333V137.6l-8.533,49.067H76.267z"/><g> <polygon style="fill:#334A5E;" points="187.2,103.467 200,80 178.667,58.667 201.067,17.067 256.533,173.867 "/> <path style="fill:#334A5E;" d="M89.067,96c3.2-22.4,16-41.6,33.067-55.467c12.8,30.933,19.2,64,19.2,97.067l-25.6,142.933 l-51.2-10.667L89.067,96z"/> <circle style="fill:#334A5E;" cx="256.533" cy="212.267" r="8.533"/> <circle style="fill:#334A5E;" cx="256.533" cy="283.733" r="8.533"/> </g></symbol><symbol id="fashion" viewBox="0 0 512.001 512.001"><title>fashion</title><g> <path style="fill:#2F5259;" d="M67.909,82.885c-1.348-4.514-6.11-7.074-10.624-5.726c-3.61,1.084-6.084,4.403-6.084,8.175v366.933 c0,4.71,3.823,8.533,8.533,8.533h51.2c4.71,0,8.533-3.823,8.533-8.533V256.001c0-0.828-0.119-1.655-0.358-2.449L67.909,82.885z"/> <path style="fill:#2F5259;" d="M453.513,76.895c-4.164-0.563-8.132,1.963-9.387,5.973l-51.2,170.667 c-0.247,0.802-0.384,1.63-0.393,2.466v196.267c0,4.71,3.823,8.533,8.533,8.533h51.2c4.71,0,8.533-3.823,8.533-8.533V85.334 C460.8,81.101,457.703,77.517,453.513,76.895z"/> </g><path style="fill:#689BA6;" d="M456.261,77.791l-145.067-76.8c-1.229-0.649-2.603-0.99-3.994-0.99H204.8 c-1.391,0-2.765,0.341-3.994,0.99L55.74,77.791c-3.601,1.911-5.35,6.093-4.181,9.993L102.4,257.255v246.212 c0,4.71,3.823,8.533,8.533,8.533H204.8c2.261,0,4.437-0.896,6.033-2.5L256,464.334l45.167,45.167c1.604,1.604,3.772,2.5,6.033,2.5 h93.867c4.71,0,8.533-3.823,8.533-8.533V257.255l50.842-169.472C461.611,83.883,459.862,79.702,456.261,77.791z"/><g> <path style="fill:#2F5259;" d="M264.346,245.684l-51.2-238.933c-0.99-4.608-5.53-7.543-10.138-6.554 c-0.768,0.162-1.519,0.435-2.21,0.811l-78.003,41.463c-4.164,2.219-5.734,7.381-3.524,11.546c0.401,0.742,0.905,1.425,1.502,2.022 l54.895,54.895l-28.1,28.1c-3.328,3.328-3.328,8.738,0,12.066l102.4,102.4c3.328,3.337,8.738,3.337,12.066,0 c2.048-2.048,2.918-4.992,2.313-7.825V245.684z"/> <path style="fill:#2F5259;" d="M393.643,48.735c-0.401-2.679-2.048-5.001-4.437-6.272L311.211,0.999 c-4.164-2.21-9.327-0.631-11.537,3.533c-0.375,0.7-0.649,1.442-0.811,2.21l-51.2,238.933c-0.99,4.608,1.946,9.148,6.554,10.138 c2.833,0.606,5.777-0.265,7.825-2.313l102.4-102.4c3.328-3.328,3.328-8.738,0-12.066l-28.109-28.1l54.903-54.903 C393.148,54.119,394.044,51.414,393.643,48.735z"/> <rect x="136.534" y="384.001" style="fill:#2F5259;" width="59.733" height="17.067"/> <rect x="315.734" y="384.001" style="fill:#2F5259;" width="59.733" height="17.067"/> <rect x="281.6" y="264.534" style="fill:#2F5259;" width="17.067" height="17.067"/> <rect x="281.6" y="315.734" style="fill:#2F5259;" width="17.067" height="17.067"/> <rect x="281.6" y="366.934" style="fill:#2F5259;" width="17.067" height="17.067"/> <polygon style="fill:#2F5259;" points="247.467,472.867 256,464.334 264.534,472.867 264.534,247.467 247.467,247.467 "/> </g></symbol><symbol id="wedding-suit" viewBox="0 0 512 512"><title>wedding-suit</title><path style="fill:#4D4A5B;" d="M200.588,57.574C171.6,69.509,98.192,95.59,98.192,95.59s0.005,0.019,0.006,0.022 c-0.017-0.02-0.035-0.041-0.035-0.041c-1.81,4.248-37.947,89.826-37.947,149.457c0,47.218-3.439,188.876-5.007,251.013 C54.988,504.793,62.022,512,70.777,512h44.575c0.605-53.785,3.578-247.783,15.203-276.574l0.23-0.648 c-0.07-0.364-0.132-0.737-0.199-1.105c5.813,30.264,10.207,59.476,10.689,80.409c1.539,66.932-17.958,108.477-24.882,180.025 L115.352,512h284.303l-1.041-17.893c-6.924-71.548-26.421-113.092-24.882-180.025c0.481-20.91,4.866-50.079,10.669-80.306 c-0.06,0.334-0.116,0.672-0.179,1.002l0.23,0.648C396.077,264.217,399.05,458.215,399.655,512h41.569 c8.662,0,15.66-7.061,15.572-15.722c-0.626-62.014-2.005-203.971-2.005-251.25c0-59.631-36.138-145.208-37.948-149.457 c0,0-0.019,0.022-0.035,0.042c0.001-0.003,0.006-0.023,0.006-0.023s-73.408-26.081-102.396-38.016"/><path style="fill:#444251;" d="M314.418,57.574C343.406,69.509,416.814,95.59,416.814,95.59s-41.544,151.559-43.083,218.492 c-1.539,66.932,17.958,108.477,24.882,180.025L399.654,512h-54.122l-1.041-17.893c-6.924-71.548-26.421-113.092-24.882-180.025 c1.164-50.629,25.218-149.679,36.867-194.928c3.44-13.362-3.848-27.142-16.826-31.826c-24.053-8.681-60.802-22.114-79.354-29.753 l54.125,0.001"/><path style="fill:#FED9A8;" d="M256,103.452c28.834,0,53.327-18.522,62.273-44.312c-1.355-0.544-2.647-1.068-3.855-1.566 c-8.6-3.541-14.793-29.398-14.793-29.398l-0.68-21.243C298.821,3.069,295.652,0,291.785,0H223.22c-3.867,0-7.035,3.069-7.159,6.934 l-0.68,21.243c0,0-6.193,25.857-14.794,29.398c-1.973,0.812-4.157,1.692-6.504,2.622C203.324,85.438,227.558,103.452,256,103.452z"/><path style="fill:#F4CFA2;" d="M299.624,28.177l-0.68-21.243C298.821,3.069,295.652,0,291.785,0h-34.282v103.422 c28.178-0.632,51.981-18.943,60.77-44.282c-1.355-0.544-2.647-1.068-3.855-1.566C305.817,54.033,299.624,28.177,299.624,28.177z"/><polygon style="fill:#FFFFFF;" points="257.503,61.354 207.702,96.015 257.503,365.04 307.304,96.015 "/><g> <path style="fill:#F2F2F2;" d="M215.324,28.413c-0.617,2.486-6.398,24.989-14.312,28.952c-0.139,0.079-0.279,0.15-0.423,0.21 c-0.001,0-0.002,0.001-0.002,0.001l7.116,38.44l49.801-34.661C257.503,61.354,229.013,50.316,215.324,28.413z"/> <path style="fill:#F2F2F2;" d="M299.682,28.413c0.617,2.486,6.398,24.989,14.312,28.952c0.139,0.079,0.279,0.15,0.423,0.21 c0.001,0,0.002,0.001,0.002,0.001l-7.116,38.44l-49.801-34.661C257.503,61.354,285.993,50.316,299.682,28.413z"/> </g><polygon style="fill:#E25959;" points="257.503,61.354 232.653,78.65 242.454,99.384 257.503,99.384 272.552,99.384 282.353,78.65 "/><g> <path style="fill:#3A3847;" d="M265.247,512V332.256c0-4.277-3.467-7.744-7.744-7.744c-4.278,0-7.744,3.467-7.744,7.744V512 H265.247z"/> <path style="fill:#3A3847;" d="M215.599,445.523h-50.213c-2.178,0-3.943-1.766-3.943-3.943v-21.617 c0-2.178,1.766-3.943,3.943-3.943h50.213c2.178,0,3.943,1.766,3.943,3.943v21.617C219.543,443.757,217.777,445.523,215.599,445.523 z"/> <path style="fill:#3A3847;" d="M346.372,445.523h-50.213c-2.178,0-3.943-1.766-3.943-3.943v-21.617 c0-2.178,1.766-3.943,3.943-3.943h50.213c2.178,0,3.943,1.766,3.943,3.943v21.617C350.315,443.757,348.55,445.523,346.372,445.523z "/> </g><g> <path style="fill:#666277;" d="M257.503,365.04L200.586,57.575c-7.215,2.971-17.071,6.817-27.834,10.92 c-5.072,8.644-11.539,20.643-19.879,37.096l32.406,7.623l-16.25,20.073L257.503,365.04z"/> <path style="fill:#666277;" d="M257.503,365.04L314.42,57.575c7.215,2.971,17.071,6.817,27.834,10.92 c5.072,8.644,11.539,20.643,19.879,37.096l-32.406,7.623l16.25,20.073L257.503,365.04z"/> </g><polygon style="fill:#F33A3A;" points="257.501,365.028 257.503,365.04 286.023,210.977 272.386,99.385 257.503,99.385 242.62,99.385 228.983,210.978 "/><g> <path style="fill:#F15A24;" d="M300.11,30.061c0.026,0.096,0.052,0.193,0.08,0.295C300.163,30.255,300.136,30.156,300.11,30.061z"/> <path style="fill:#F15A24;" d="M299.82,28.958c0.019,0.072,0.037,0.144,0.058,0.226C299.858,29.103,299.838,29.029,299.82,28.958z"/> <path style="fill:#F15A24;" d="M300.304,30.771c0.027,0.097,0.055,0.198,0.083,0.3C300.358,30.97,300.33,30.868,300.304,30.771z"/> <path style="fill:#F15A24;" d="M299.948,29.451c0.023,0.088,0.047,0.177,0.072,0.274C299.995,29.63,299.971,29.538,299.948,29.451z "/> <path style="fill:#F15A24;" d="M299.732,28.61c0.011,0.044,0.021,0.084,0.034,0.135C299.753,28.695,299.743,28.654,299.732,28.61z"/> <path style="fill:#F15A24;" d="M301.062,33.416c0.006,0.021,0.013,0.044,0.02,0.065C301.075,33.46,301.069,33.437,301.062,33.416z"/> <path style="fill:#F15A24;" d="M300.527,31.572c0.026,0.093,0.054,0.189,0.081,0.285C300.581,31.762,300.553,31.664,300.527,31.572 z"/> <path style="fill:#F15A24;" d="M214.203,32.536c0.003-0.01,0.006-0.02,0.009-0.029C214.208,32.516,214.205,32.526,214.203,32.536z"/> <path style="fill:#F15A24;" d="M200.586,57.575L200.586,57.575L200.586,57.575z"/> <path style="fill:#F15A24;" d="M214.436,31.723c0.008-0.028,0.016-0.056,0.024-0.083C214.452,31.667,214.444,31.696,214.436,31.723 z"/> <path style="fill:#F15A24;" d="M214.651,30.957c0.01-0.034,0.019-0.069,0.028-0.102C214.67,30.888,214.66,30.923,214.651,30.957z"/> <path style="fill:#F15A24;" d="M215.015,29.612c0.001-0.003,0.001-0.006,0.002-0.009C215.017,29.606,215.016,29.609,215.015,29.612 z"/> <path style="fill:#F15A24;" d="M214.849,30.234c0.005-0.017,0.009-0.034,0.014-0.051C214.858,30.2,214.853,30.217,214.849,30.234z"/> </g><polygon style="fill:#C13A3A;" points="257.503,99.385 257.503,99.385 257.503,365.039 257.503,365.04 286.023,210.977 272.386,99.385 "/><g> <path style="fill:#666277;" d="M215.599,416.019h-50.213c-2.178,0-3.944,1.765-3.944,3.943v6.865c0,2.178,1.766,3.944,3.944,3.944 h50.213c2.178,0,3.944-1.766,3.944-3.944v-6.865C219.543,417.785,217.777,416.019,215.599,416.019z"/> <path style="fill:#666277;" d="M346.372,416.019h-50.213c-2.178,0-3.944,1.765-3.944,3.943v6.865c0,2.178,1.766,3.944,3.944,3.944 h50.213c2.178,0,3.944-1.766,3.944-3.944v-6.865C350.316,417.785,348.55,416.019,346.372,416.019z"/> </g></symbol><symbol id="computer-2" viewBox="0 0 512 512"><title>computer-2</title><path style="fill:#E6EAEE;" d="M477.534,385.59H34.466c-19.034,0-34.463-15.43-34.463-34.463V65.589 c0-19.034,15.43-34.463,34.463-34.463h443.067c19.034,0,34.463,15.43,34.463,34.463v285.537 C511.996,370.16,496.566,385.59,477.534,385.59z"/><path style="fill:#34D6C1;" d="M440.334,289.149h-293.5c-2.762,0-5.001-2.24-5.001-5.001V152.439c0-2.762,2.24-5.001,5.001-5.001 h293.5c2.762,0,5.001,2.24,5.001,5.001v131.708C445.335,286.909,443.095,289.149,440.334,289.149z"/><path style="fill:#1AC4AE;" d="M445.338,152.588v131.406c0,2.845-2.309,5.154-5.154,5.154h-22.121c2.845,0,5.154-2.309,5.154-5.154 V152.588c0-2.845-2.309-5.154-5.154-5.154h22.121C443.028,147.434,445.338,149.743,445.338,152.588z"/><path style="fill:#34D6C1;" d="M474.582,85.472v39.779H37.418V85.472c0-3.082,2.309-5.577,5.154-5.577h426.856 C472.273,79.895,474.582,82.39,474.582,85.472z"/><path style="fill:#1AC4AE;" d="M474.582,85.472v39.779h-35.078V85.472c0-3.082-2.309-5.577-5.154-5.577h35.078 C472.273,79.895,474.582,82.39,474.582,85.472z"/><path style="fill:#E6EAEE;" d="M356.14,480.874H155.86c-2.762,0-5.001-2.24-5.001-5.001v-26.847c0-2.762,2.24-5.001,5.001-5.001 H356.14c2.762,0,5.001,2.24,5.001,5.001v26.847C361.142,478.636,358.902,480.874,356.14,480.874z"/><path style="fill:#CDD3D9;" d="M356.14,480.874h-23.229v-36.85h23.229c2.762,0,5.001,2.24,5.001,5.001v26.847 C361.142,478.636,358.902,480.874,356.14,480.874z"/><rect x="220.916" y="386.056" style="fill:#E6EAEE;" width="70.161" height="57.97"/><rect x="262.468" y="386.056" style="fill:#CDD3D9;" width="28.61" height="57.97"/><path style="fill:#5C6D7D;" d="M512,348.492v1.587c0,19.606-15.906,35.512-35.522,35.512H35.522C15.906,385.591,0,369.685,0,350.079 v-1.587H512z"/><path style="fill:#53616D;" d="M512,348.492v1.587c0,19.606-15.906,35.512-35.522,35.512h-54.354 c19.616,0,35.522-15.906,35.522-35.512v-1.587H512z"/><g> <path style="fill:#FF6E5E;" d="M48.118,63.919c-2.032,0-4.02-0.824-5.463-2.268c-0.361-0.35-0.68-0.753-0.959-1.174 c-0.278-0.413-0.525-0.866-0.71-1.329c-0.196-0.464-0.34-0.959-0.444-1.443c-0.103-0.505-0.154-1.009-0.154-1.515 s0.051-1.01,0.154-1.516c0.104-0.494,0.248-0.978,0.444-1.442c0.185-0.464,0.433-0.917,0.71-1.329 c0.279-0.433,0.598-0.824,0.959-1.174c0.36-0.361,0.752-0.68,1.174-0.969c0.423-0.278,0.865-0.515,1.329-0.711 c0.474-0.185,0.958-0.339,1.453-0.433c0.999-0.205,2.021-0.205,3.02,0c0.495,0.094,0.979,0.248,1.443,0.433 c0.463,0.196,0.917,0.434,1.339,0.711c0.423,0.289,0.814,0.608,1.174,0.969c0.35,0.35,0.68,0.752,0.958,1.174 c0.279,0.413,0.515,0.865,0.711,1.329c0.196,0.464,0.34,0.948,0.443,1.442c0.094,0.505,0.145,1.01,0.145,1.516 c0,2.031-0.824,4.03-2.258,5.463c-0.36,0.36-0.752,0.68-1.174,0.958c-0.423,0.289-0.877,0.526-1.339,0.722 c-0.464,0.185-0.948,0.34-1.443,0.433C49.128,63.867,48.623,63.919,48.118,63.919z"/> <path style="fill:#FF6E5E;" d="M78.361,63.919c-0.505,0-1.01-0.051-1.515-0.155c-0.495-0.093-0.979-0.248-1.443-0.433 c-0.464-0.195-0.917-0.433-1.339-0.722c-0.423-0.278-0.814-0.598-1.175-0.958c-0.35-0.35-0.679-0.753-0.958-1.174 c-0.278-0.413-0.515-0.866-0.71-1.329c-0.196-0.464-0.34-0.959-0.444-1.443c-0.093-0.505-0.144-1.009-0.144-1.515 s0.051-1.01,0.144-1.516c0.104-0.494,0.248-0.978,0.444-1.442c0.195-0.464,0.433-0.917,0.71-1.329 c0.279-0.433,0.608-0.824,0.958-1.174c0.361-0.361,0.753-0.68,1.175-0.969c0.423-0.278,0.876-0.515,1.339-0.711 c0.464-0.185,0.948-0.339,1.443-0.433c0.999-0.205,2.031-0.205,3.02,0c0.494,0.094,0.979,0.248,1.453,0.433 c0.464,0.196,0.907,0.434,1.329,0.711c0.423,0.289,0.814,0.608,1.174,0.969c0.36,0.35,0.68,0.742,0.958,1.174 c0.279,0.413,0.515,0.865,0.711,1.329c0.196,0.464,0.34,0.948,0.443,1.442c0.104,0.505,0.155,1.01,0.155,1.516 c0,2.031-0.824,4.03-2.268,5.463c-0.36,0.36-0.752,0.68-1.174,0.958c-0.423,0.289-0.865,0.526-1.329,0.722 c-0.474,0.185-0.959,0.34-1.453,0.433C79.371,63.867,78.867,63.919,78.361,63.919z"/> <path style="fill:#FF6E5E;" d="M108.595,63.919c-0.505,0-1.01-0.051-1.515-0.155c-0.495-0.093-0.979-0.248-1.443-0.433 c-0.464-0.195-0.917-0.433-1.329-0.722c-0.433-0.278-0.824-0.598-1.174-0.958c-0.361-0.35-0.68-0.753-0.969-1.174 c-0.278-0.413-0.515-0.866-0.711-1.329c-0.185-0.464-0.339-0.959-0.433-1.443c-0.103-0.505-0.154-1.009-0.154-1.515 s0.051-1.01,0.154-1.516c0.094-0.494,0.248-0.978,0.433-1.442c0.196-0.464,0.434-0.917,0.711-1.329 c0.289-0.433,0.608-0.824,0.969-1.174c0.35-0.361,0.742-0.68,1.174-0.969c0.413-0.278,0.865-0.515,1.329-0.711 c0.464-0.185,0.948-0.339,1.443-0.433c0.999-0.205,2.031-0.205,3.03,0c0.484,0.094,0.979,0.248,1.443,0.433 c0.463,0.196,0.917,0.434,1.329,0.711c0.422,0.289,0.824,0.608,1.174,0.969c0.36,0.35,0.68,0.742,0.958,1.174 c0.289,0.413,0.526,0.865,0.722,1.329c0.185,0.464,0.34,0.948,0.433,1.442c0.104,0.505,0.155,1.01,0.155,1.516 s-0.051,1.009-0.155,1.515c-0.093,0.484-0.248,0.979-0.433,1.443c-0.195,0.463-0.433,0.917-0.722,1.329 c-0.278,0.422-0.598,0.824-0.958,1.174C112.626,63.094,110.625,63.919,108.595,63.919z"/> <path style="fill:#FF6E5E;" d="M108.595,110.796H66.408c-4.27,0-7.731-3.461-7.731-7.731c0-4.27,3.461-7.731,7.731-7.731h42.188 c4.27,0,7.731,3.461,7.731,7.731C116.326,107.335,112.865,110.796,108.595,110.796z"/> </g><path style="fill:#5C6D7D;" d="M109.171,289.149H70.303c-2.762,0-5.001-2.24-5.001-5.001V153.659c0-2.762,2.24-5.001,5.001-5.001 h38.868c2.762,0,5.001,2.24,5.001,5.001v130.488C114.172,286.909,111.932,289.149,109.171,289.149z"/><path style="fill:#FFD071;" d="M114.171,171.998v111.996c0,2.845-2.309,5.154-5.154,5.154H70.455c-2.845,0-5.154-2.309-5.154-5.154 V171.998H114.171z"/><path style="fill:#5C6D7D;" d="M304.235,210.562h-2.92v-2.92c0-4.27-3.461-7.731-7.731-7.731c-4.27,0-7.731,3.461-7.731,7.731v2.92 h-2.921c-4.27,0-7.731,3.461-7.731,7.731c0,4.27,3.461,7.731,7.731,7.731h2.921v2.92c0,4.27,3.461,7.731,7.731,7.731 c4.27,0,7.731-3.461,7.731-7.731v-2.92h2.92c4.27,0,7.731-3.461,7.731-7.731C311.966,214.023,308.505,210.562,304.235,210.562z"/></symbol><symbol id="arrows" viewBox="0 0 512 512"><title>arrows</title><path style="fill:#E7ECED;" d="M370.759,494.345H141.241c-9.754,0-17.655-7.901-17.655-17.655l0,0 c0-9.754,7.901-17.655,17.655-17.655h229.517c9.754,0,17.655,7.901,17.655,17.655l0,0 C388.414,486.444,380.513,494.345,370.759,494.345z"/><g> <path style="fill:#AFB6BB;" d="M300.138,379.586h-88.276c0,39.036-13.93,79.448-52.966,79.448h194.207 C314.068,459.034,300.138,418.622,300.138,379.586z"/> <path style="fill:#AFB6BB;" d="M441.379,17.655H70.621H26.492C11.864,17.655,0,29.519,0,44.147v273.646h70.621h132.414h105.931 h132.414H512V44.147c0-14.627-11.864-26.492-26.492-26.492H441.379z"/> </g><path style="fill:#E7ECED;" d="M485.508,388.414H26.492C11.864,388.414,0,376.549,0,361.922v-44.129h512v44.129 C512,376.549,500.136,388.414,485.508,388.414z"/><path style="fill:#AFB6BB;" d="M282.483,361.931h-52.966c-4.873,0-8.828-3.955-8.828-8.828c0-4.873,3.955-8.828,8.828-8.828h52.966 c4.873,0,8.828,3.955,8.828,8.828C291.31,357.976,287.356,361.931,282.483,361.931z"/><rect x="35.31" y="52.966" style="fill:#EBBA16;" width="441.379" height="264.828"/><circle style="fill:#BE7C6D;" cx="141.241" cy="185.379" r="70.621"/><path style="fill:#6B4842;" d="M141.241,229.517c-24.338,0-44.138-19.8-44.138-44.138s19.8-44.138,44.138-44.138 c4.873,0,8.828,3.955,8.828,8.828c0,4.873-3.955,8.828-8.828,8.828c-14.601,0-26.483,11.882-26.483,26.483 c0,14.601,11.882,26.483,26.483,26.483c14.601,0,26.483-11.882,26.483-26.483c0-4.873,3.955-8.828,8.828-8.828 c4.873,0,8.828,3.955,8.828,8.828C185.379,209.717,165.579,229.517,141.241,229.517z"/><circle style="fill:#E7ECED;" cx="370.759" cy="185.379" r="70.621"/><g> <path style="fill:#366DB6;" d="M282.483,123.586H220.69c-4.873,0-8.828-3.955-8.828-8.828s3.955-8.828,8.828-8.828h61.793 c4.873,0,8.828,3.955,8.828,8.828S287.356,123.586,282.483,123.586z"/> <path style="fill:#366DB6;" d="M282.483,123.586c-2.26,0-4.52-0.865-6.241-2.586l-26.483-26.483c-3.452-3.452-3.452-9.031,0-12.482 c3.443-3.452,9.039-3.452,12.482,0l26.483,26.483c3.452,3.452,3.452,9.031,0,12.482 C287.003,122.721,284.743,123.586,282.483,123.586z"/> <path style="fill:#366DB6;" d="M256,150.069c-2.26,0-4.52-0.865-6.241-2.586c-3.452-3.452-3.452-9.031,0-12.482l26.483-26.483 c3.443-3.452,9.039-3.452,12.482,0c3.452,3.452,3.452,9.031,0,12.482l-26.483,26.483C260.52,149.204,258.26,150.069,256,150.069z"/> </g><g> <path style="fill:#25AE88;" d="M282.483,264.828H220.69c-4.873,0-8.828-3.955-8.828-8.828s3.955-8.828,8.828-8.828h61.793 c4.873,0,8.828,3.955,8.828,8.828S287.356,264.828,282.483,264.828z"/> <path style="fill:#25AE88;" d="M247.172,291.31c-2.26,0-4.52-0.865-6.241-2.586l-26.483-26.483c-3.452-3.452-3.452-9.031,0-12.482 c3.443-3.452,9.039-3.452,12.482,0l26.483,26.483c3.452,3.452,3.452,9.031,0,12.482C251.692,290.445,249.432,291.31,247.172,291.31 z"/> <path style="fill:#25AE88;" d="M220.69,264.828c-2.26,0-4.52-0.865-6.241-2.586c-3.452-3.452-3.452-9.031,0-12.482l26.483-26.483 c3.443-3.452,9.039-3.452,12.482,0c3.452,3.452,3.452,9.031,0,12.482l-26.483,26.483 C225.209,263.962,222.95,264.828,220.69,264.828z"/> </g><path style="fill:#AFB6BB;" d="M370.856,229.517h-0.097c-11.714,0-22.749-4.546-31.073-12.791c-3.46-3.434-3.487-9.022-0.062-12.482 c3.434-3.469,9.022-3.496,12.482-0.062c5.005,4.952,11.626,7.68,18.653,7.68c4.873,0,8.881,3.955,8.881,8.828 C379.639,225.562,375.737,229.517,370.856,229.517z M395.767,219.136c-2.26,0-4.511-0.865-6.241-2.578 c-3.452-3.443-3.452-9.031-0.009-12.482c4.979-4.996,7.724-11.635,7.724-18.697c0-4.846,3.911-8.995,8.757-9.031 c5.041,0.115,8.819,3.637,8.889,8.483c0,0.044,0,0.503,0,0.547c0,11.767-4.573,22.837-12.888,31.161 C400.287,218.271,398.027,219.136,395.767,219.136z M335.448,194.304c-4.873,0-8.828-3.849-8.828-8.722h8.828l-8.828-0.035 c0-11.838,4.511-22.837,12.703-31.144c3.416-3.478,9.013-3.513,12.482-0.088c3.469,3.425,3.505,9.013,0.088,12.482 c-4.917,4.979-7.618,11.582-7.618,18.582C344.276,190.252,340.321,194.304,335.448,194.304z M395.476,168.986 c-2.225,0-4.458-0.839-6.171-2.525c-4.996-4.882-11.573-7.565-18.547-7.565c-4.873,0-8.986-3.946-8.986-8.828 c0-4.873,3.796-8.828,8.678-8.828v8.828l0.062-8.828c0.009,0,0.009,0,0.018,0c11.855,0,22.81,4.476,31.117,12.606 c3.487,3.407,3.54,9.004,0.132,12.482C400.049,168.095,397.762,168.986,395.476,168.986z"/></symbol><symbol id="computer-1" viewBox="0 0 512 512"><title>computer-1</title><path style="fill:#B5C0C9;" d="M301.707,348.415v82.264H114.29l18.25-36.576c24.643,0,44.608-19.966,44.608-44.595v-1.093H301.707z"/><path style="fill:#C9D1D6;" d="M301.707,348.415v82.264h-68.412c40.961,0,36.576-36.576,36.576-36.576h-41.888 c44.531,0,45.701-45.688,45.701-45.688H301.707z"/><path style="fill:#AFE0EF;" d="M512,53.777v271.88c0,18.326-14.882,33.208-33.195,33.208H33.195C14.869,358.864,0,343.982,0,325.656 V53.777c0-18.339,14.869-33.195,33.195-33.195h445.609C497.117,20.581,512,35.438,512,53.777z"/><path style="fill:#E6F7FC;" d="M512,53.777v271.88c0,18.326-14.882,33.208-33.195,33.208h-318.14 C398.307,291.24,405.856,20.581,405.856,20.581h72.948C497.117,20.581,512,35.438,512,53.777z"/><path style="fill:#B5C0C9;" d="M512,302.793v22.863c0,18.326-14.882,33.208-33.195,33.208H33.195 C14.869,358.864,0,343.982,0,325.656v-22.863L512,302.793L512,302.793z"/><path style="fill:#C9D1D6;" d="M512,302.793v22.863c0,18.326-14.882,33.208-33.195,33.208h-318.14 c44.391-12.62,80.752-32.344,110.541-56.071L512,302.793L512,302.793z"/><path style="fill:#3C4A5E;" d="M466.28,238.24v238.829c0,7.929-6.432,14.35-14.35,14.35H315.993c-7.929,0-14.35-6.421-14.35-14.35 V238.24c0-7.929,6.421-14.35,14.35-14.35H451.93C459.847,223.89,466.28,230.312,466.28,238.24z"/><path style="fill:#4B5A6B;" d="M466.28,238.24v238.829c0,7.929-6.432,14.35-14.35,14.35h-113.15 c127.499-48.02,113.15-267.528,113.15-267.528C459.847,223.89,466.28,230.312,466.28,238.24z"/><rect x="301.641" y="271.914" style="fill:#AFE0EF;" width="164.634" height="171.489"/><path style="fill:#E6F7FC;" d="M466.28,271.912v171.487h-65.453c37.612-50.675,48.172-123.802,50.803-171.487L466.28,271.912 L466.28,271.912z"/><g> <path style="fill:#F26464;" d="M173.471,237.47c-4.328,0-7.837-3.509-7.837-7.837c0-77.548,63.09-140.638,140.638-140.638 c4.328,0,7.837,3.509,7.837,7.837s-3.509,7.837-7.837,7.837c-68.906,0-124.965,56.059-124.965,124.965 C181.308,233.961,177.799,237.47,173.471,237.47z"/> <path style="fill:#F26464;" d="M217.493,237.47c-4.328,0-7.837-3.509-7.837-7.837c0-53.274,43.341-96.615,96.615-96.615 c4.328,0,7.837,3.509,7.837,7.837c0,4.328-3.509,7.837-7.837,7.837c-44.632,0-80.942,36.31-80.942,80.942 C225.33,233.961,221.821,237.47,217.493,237.47z"/> <path style="fill:#F26464;" d="M261.516,237.47c-4.328,0-7.837-3.509-7.837-7.837c0-29,23.593-52.593,52.593-52.593 c4.328,0,7.837,3.509,7.837,7.837c0,4.328-3.509,7.837-7.837,7.837c-20.358,0-36.919,16.562-36.919,36.919 C269.353,233.961,265.844,237.47,261.516,237.47z"/> </g></symbol><symbol id="computer" viewBox="0 0 512 512"><title>computer</title><polygon style="fill:#ABB9C6;" points="346.4,478.938 165.605,478.938 178.512,448.737 183.427,437.253 194.153,412.162 317.852,412.162 328.578,437.253 333.492,448.737 "/><polygon style="fill:#93A0AA;" points="328.578,437.253 183.427,437.253 194.153,412.162 317.852,412.162 "/><path style="fill:#B6C7D3;" d="M393.462,490.425H118.535l0,0c9.791-14.369,26.054-22.967,43.442-22.967h188.043 C367.408,467.458,383.67,476.056,393.462,490.425L393.462,490.425z"/><path style="fill:#ABB9C6;" d="M512,55.095v326.991c0,18.511-14.997,33.52-33.509,33.52H33.509C14.997,415.606,0,400.597,0,382.086 V55.095c0-18.511,14.997-33.52,33.509-33.52h444.983C497.003,21.575,512,36.584,512,55.095z"/><path style="fill:#C5D6E2;" d="M512,55.095v326.991c0,18.511-14.997,33.52-33.509,33.52H180.898l24.552-59.875L342.47,21.575 h136.021C497.003,21.575,512,36.584,512,55.095z"/><path style="fill:#93A0AA;" d="M256.002,393.214c-3.448,0-6.634-2.135-7.958-5.317c-1.465-3.521-0.359-7.694,2.622-10.058 c6.24-4.949,15.53,0.968,13.723,8.703C263.488,390.388,259.968,393.214,256.002,393.214z"/><path style="fill:#B8E9F2;" d="M512,55.095v300.636H0V55.095c0-18.51,14.997-33.52,33.509-33.52h444.983 C497.003,21.575,512,36.585,512,55.095"/><path style="fill:#D4F7FC;" d="M512,55.095v300.636H205.45L342.47,21.575h136.021C497.003,21.575,512,36.585,512,55.095"/><path style="fill:#E8D358;" d="M469.55,295.957c0-111.369-90.282-201.651-201.65-201.651c-111.367,0-201.65,90.282-201.65,201.651 H469.55"/><path style="fill:#F75757;" d="M410.489,153.365l-26.791,26.792v0.011c15.767,15.767,28.33,34.727,36.644,55.821 c7.303,18.569,11.324,38.804,11.324,59.968h37.895C469.558,240.261,446.982,189.849,410.489,153.365"/><path style="fill:#D4F7FC;" d="M431.653,295.955H104.145c0-90.443,73.322-163.754,163.753-163.754 c9.624,0,19.052,0.827,28.216,2.422C373.11,147.992,431.653,215.135,431.653,295.955"/><path style="fill:#FFFFFF;" d="M431.653,295.955H229.958l66.156-161.332C373.11,147.992,431.653,215.135,431.653,295.955"/><polyline style="fill:#F75757;" points="364.637,193.834 326.95,193.834 339.703,206.588 275.599,270.693 287.779,282.872 351.884,218.767 364.637,231.52 364.637,193.834 "/><path style="fill:#E8D358;" d="M235.744,295.955c0-17.753,14.4-32.154,32.154-32.154c17.766,0,32.154,14.4,32.154,32.154H235.744"/><path style="fill:#737D84;" d="M267.9,87.991c-114.672,0-207.966,93.294-207.966,207.966v6.316h37.896h30.625h303.199h6.317h37.895 v-6.316C475.866,181.284,382.574,87.991,267.9,87.991 M392.477,180.31l17.876-17.877c15.334,16.349,27.882,35.333,36.907,56.186 l-23.528,9.255C416.01,210.267,405.39,194.212,392.477,180.31 M112.068,227.874l-23.527-9.255 c9.025-20.852,21.573-39.836,36.905-56.185l17.877,17.876C130.41,194.212,119.792,210.267,112.068,227.874 M152.255,171.379 l-17.869-17.869c14.664-13.753,31.443-25.275,49.794-34.016l10.089,23.171C178.827,150.114,164.683,159.834,152.255,171.379 M205.845,137.609l-10.087-23.17c20.477-8.166,42.647-12.965,65.826-13.704v25.28C241.986,126.735,223.221,130.776,205.845,137.609 M274.216,100.735c23.179,0.741,45.349,5.538,65.826,13.704l-10.087,23.169c-17.376-6.833-36.139-10.874-55.739-11.594V100.735 M351.62,119.493c18.352,8.742,35.13,20.265,49.794,34.017l-17.869,17.869c-12.427-11.544-26.573-21.267-42.014-28.714 L351.62,119.493 M72.667,289.64c0.661-20.726,4.577-40.646,11.235-59.271l23.528,9.254c-5.545,15.748-8.832,32.551-9.473,50.016 H72.667 M128.456,289.64h-17.871c3.326-83.897,72.617-151.123,157.314-151.123c84.698,0,153.989,67.225,157.314,151.123H128.456 M437.842,289.64c-0.642-17.466-3.927-34.268-9.473-50.015l23.527-9.256c6.658,18.625,10.576,38.544,11.237,59.271H437.842"/><path style="fill:#D4F7FC;" d="M478.491,21.575H342.47l-29.271,71.384c92.965,20.73,162.667,103.877,162.667,202.997v6.316h-37.895 h-6.317H227.371l-21.921,53.46H512V55.096C512,36.585,497.003,21.575,478.491,21.575"/><path style="fill:#EDD766;" d="M351.62,119.493l-10.089,23.172c15.442,7.447,29.587,17.169,42.014,28.714l17.869-17.869 C386.75,139.757,369.972,128.234,351.62,119.493 M308.327,104.841l-9.768,23.822c10.858,1.982,21.359,4.998,31.397,8.944 l10.087-23.169C329.861,110.38,319.261,107.152,308.327,104.841"/><path style="fill:#F67676;" d="M451.897,230.369l-23.527,9.256c5.545,15.747,8.831,32.55,9.473,50.015h25.291 C462.472,268.913,458.555,248.994,451.897,230.369 M410.353,162.434l-17.876,17.877c12.913,13.901,23.533,29.957,31.254,47.563 l23.528-9.255C438.234,197.768,425.687,178.783,410.353,162.434"/><path style="fill:#D4F7FC;" d="M293.654,140.623L232.551,289.64h3.815c2.936-14.731,15.941-25.839,31.532-25.839 c4.319,0,8.437,0.851,12.199,2.394l59.607-59.607l-12.753-12.752h37.686v37.685l-12.752-12.752l-58.105,58.105 c2.749,3.723,4.714,8.061,5.652,12.768h125.783C422.233,214.428,366.24,152.615,293.654,140.623"/><path style="fill:#F67676;" d="M364.637,193.834H326.95l12.753,12.752l-59.607,59.607c5.484,2.251,10.211,5.974,13.684,10.676 l58.105-58.105l12.752,12.752v-37.683"/><path style="fill:#EDD766;" d="M267.898,263.802c-15.591,0-28.596,11.108-31.532,25.839h63.067 c-0.937-4.707-2.903-9.044-5.652-12.768c-3.473-4.702-8.198-8.425-13.684-10.676C276.335,264.652,272.217,263.802,267.898,263.802"/><path style="fill:#848C91;" d="M437.842,289.64c-0.642-17.466-3.927-34.268-9.473-50.015l23.527-9.256 c6.658,18.625,10.576,38.544,11.237,59.271H437.842 M423.732,227.874c-7.721-17.606-18.341-33.661-31.254-47.563l17.876-17.877 c15.334,16.349,27.882,35.333,36.907,56.186L423.732,227.874 M383.545,171.379c-12.427-11.544-26.573-21.267-42.014-28.714 l10.089-23.172c18.352,8.742,35.13,20.265,49.794,34.017L383.545,171.379 M313.199,92.959l-4.872,11.882 c10.933,2.31,21.535,5.538,31.716,9.598l-10.087,23.169c-10.038-3.948-20.539-6.962-31.397-8.944l-4.903,11.959 c72.586,11.991,128.579,73.805,131.56,149.017H299.431h-63.067h-3.815l-5.18,12.632h204.284h6.317h37.895v-6.316 C475.866,196.836,406.164,113.689,313.199,92.959L313.199,92.959"/></symbol></svg>